:SAMPLES-PER-SECOND 30
:FULLY-SPECIFIED
:DEGREES
112
root  -60.1395 33.8061 13.41 -120.524 -80.0649 141.522
RightUpLeg  -73.2077 -18.0925 9.15519
RightLeg  56.4855 2.03148 2.86024
RightFoot  -6.29436 0.440805 -10.9326
RightToes  -1.33073e-015 0 -3.6325e-017
Spine  61.1619 -7.54206 12.196
Spine1  -2.88792 0.257015 -8.56955
HEad  -44.0898 -19.8022 12.1829
LeftShoulder1  2.2868 -10.6278 -8.73618
LeftArm  -0.590094 -71.0725 -64.8356
LeftForeArm  1.10206 -11.3629 -2.31426
LeftHand  -0.0663412 4.5044 6.02975
RightShoulder  -0.373837 3.34769 -15.9889
RightArm  -31.1262 56.948 22.5864
RightForeArm  -16.6686 -3.60042 -5.06599
RightHand  -0.375673 5.56889 -4.29848
LeftUpLeg  -67.5518 10.2447 -4.50814
LeftLeg  48.5408 -6.97511 -7.96654
LeftFoot  -2.81755 0.112004 -1.23985
LeftToes  -1.93726e-010 2.42366e-011 2.16268e-013
113
root  -60.701 33.3005 13.4102 -119.349 -79.4947 142.005
RightUpLeg  -76.4489 -18.0514 9.5246
RightLeg  60.1576 1.8086 2.90714
RightFoot  -8.26674 0.246699 -11.1996
RightToes  -1.33073e-015 0 -3.6325e-017
Spine  63.3796 -8.07841 11.9205
Spine1  -5.48924 -0.396354 -9.01746
HEad  -44.0816 -19.6263 12.0664
LeftShoulder1  2.40686 -10.786 -9.48186
LeftArm  -3.11013 -72.7071 -63.3234
LeftForeArm  -0.530229 -12.6481 -1.66449
LeftHand  -0.0888192 4.2953 7.30838
RightShoulder  -0.710186 2.54565 -23.2673
RightArm  -34.9596 55.6625 25.6113
RightForeArm  -18.5864 -2.56399 -7.65019
RightHand  -0.339662 5.62776 -3.90096
LeftUpLeg  -70.6926 10.38 -5.14443
LeftLeg  52.4537 -6.26198 -8.21897
LeftFoot  -4.52966 0.0346446 -0.128571
LeftToes  -1.93726e-010 2.42366e-011 2.16268e-013
114
root  -61.1165 32.9803 13.3891 -118.833 -79.5979 143.17
RightUpLeg  -78.7132 -17.5704 9.90659
RightLeg  62.2773 1.62431 2.80232
RightFoot  -9.70803 0.0907041 -10.8365
RightToes  -1.33073e-015 0 -3.6325e-017
Spine  65.0348 -9.03066 12.2183
Spine1  -7.12308 -0.656579 -10.4378
HEad  -44.942 -18.6504 13.2737
LeftShoulder1  2.32822 -11.1787 -8.37201
LeftArm  -6.70463 -74.2611 -59.6606
LeftForeArm  -3.41253 -13.6156 -1.46389
LeftHand  -0.0140807 5.40878 5.84495
RightShoulder  -0.765092 0.907776 -29.5726
RightArm  -37.7286 54.6422 28.9759
RightForeArm  -21.9318 -1.3623 -9.5671
RightHand  -0.336185 6.48332 -3.59486
LeftUpLeg  -73.2582 10.4154 -5.26191
LeftLeg  54.9151 -5.80271 -8.32926
LeftFoot  -5.69384 0.000552473 0.675735
LeftToes  -1.93726e-010 2.42366e-011 2.16268e-013
115
root  -61.5684 32.6596 13.3732 -118.906 -79.631 144.975
RightUpLeg  -80.9177 -16.7182 9.99303
RightLeg  64.4784 1.2142 2.16496
RightFoot  -10.8569 -0.0305754 -10.1785
RightToes  -1.33073e-015 0 -3.6325e-017
Spine  66.0272 -8.95936 12.1983
Spine1  -8.06079 -0.570426 -10.0323
HEad  -45.6265 -19.0965 13.1708
LeftShoulder1  2.22172 -11.217 -7.51672
LeftArm  -9.61073 -75.7988 -55.8718
LeftForeArm  -8.12351 -14.5005 -1.85308
LeftHand  -0.198536 3.44501 8.53467
RightShoulder  -0.616511 -0.830332 -36.1708
RightArm  -39.5882 53.3326 32.1147
RightForeArm  -23.9558 -0.338833 -11.0897
RightHand  -0.176293 5.54905 -2.21202
LeftUpLeg  -75.8129 10.7615 -5.52563
LeftLeg  57.3541 -5.37699 -8.46566
LeftFoot  -7.08693 0.0151321 0.719623
LeftToes  -1.93726e-010 2.42366e-011 2.16268e-013
116
root  -61.9544 32.3764 13.3806 -120.556 -79.682 147.597
RightUpLeg  -82.3399 -15.8499 9.96946
RightLeg  66.5359 0.788062 1.312
RightFoot  -11.1692 -0.0600208 -10.0851
RightToes  -1.33073e-015 0 -3.6325e-017
Spine  67.5376 -8.9051 12.1893
Spine1  -9.62651 -0.599859 -9.40804
HEad  -45.7119 -19.4215 12.8326
LeftShoulder1  2.20292 -11.141 -7.46514
LeftArm  -12.4439 -76.1178 -54.8258
LeftForeArm  -11.7756 -15.0457 -1.45441
LeftHand  -0.561543 0.576395 13.8489
RightShoulder  -0.167311 -2.89449 -42.7263
RightArm  -40.1671 52.5502 37.8197
RightForeArm  -27.5756 0.329004 -12.5407
RightHand  -0.0825218 6.24145 -1.12283
LeftUpLeg  -77.5804 11.333 -5.64208
LeftLeg  59.6811 -5.02758 -8.6768
LeftFoot  -8.38645 0.0389946 0.448169
LeftToes  -1.93726e-010 2.42366e-011 2.16268e-013
117
root  -62.3137 32.163 13.4012 -119.46 -79.2933 148.248
RightUpLeg  -84.6154 -14.958 9.61724
RightLeg  68.1211 0.466462 0.545482
RightFoot  -11.2673 -0.0694825 -9.94426
RightToes  -1.33073e-015 0 -3.6325e-017
Spine  67.5873 -8.75148 12.0393
Spine1  -10.4458 -0.738153 -9.01326
HEad  -45.8589 -19.643 12.6009
LeftShoulder1  2.28136 -10.8587 -8.40332
LeftArm  -15.1577 -76.2876 -52.9208
LeftForeArm  -14.0817 -15.3734 -1.27087
LeftHand  -0.326062 1.6815 10.1614
RightShoulder  0.610577 -5.16201 -48.9755
RightArm  -42.9755 51.8361 44.4887
RightForeArm  -28.1892 2.384 -13.9875
RightHand  0.125392 5.94307 0.940532
LeftUpLeg  -79.8157 11.4843 -6.41345
LeftLeg  61.277 -4.68093 -8.61741
LeftFoot  -9.12637 0.0318204 1.20909
LeftToes  -1.93726e-010 2.42366e-011 2.16268e-013
118
root  -62.5916 32.1358 13.4301 -120.294 -79.1021 149.509
RightUpLeg  -84.8653 -14.6493 9.27031
RightLeg  68.7547 0.426831 0.447099
RightFoot  -11.4468 -0.0857814 -9.73333
RightToes  -1.33073e-015 0 -3.6325e-017
Spine  68.4246 -9.62765 12.0168
Spine1  -10.5938 -1.24862 -10.2157
HEad  -46.0609 -19.366 13.2884
LeftShoulder1  2.31088 -10.8415 -8.65686
LeftArm  -22.6195 -75.4868 -46.8715
LeftForeArm  -12.7533 -16.8489 -1.64274
LeftHand  -0.273128 1.89495 8.91735
RightShoulder  1.94671 -8.25734 -53.5963
RightArm  -51.5003 52.545 51.8553
RightForeArm  -21.7157 6.49904 -14.639
RightHand  0.114651 6.39122 0.795121
LeftUpLeg  -80.3275 11.5926 -6.50876
LeftLeg  62.2269 -4.41 -8.43996
LeftFoot  -9.31037 0.0075143 2.66628
LeftToes  -1.93726e-010 2.42366e-011 2.16268e-013
119
root  -62.8807 32.1272 13.511 -122.333 -78.8555 152.424
RightUpLeg  -85.343 -14.1297 9.14301
RightLeg  69.0577 0.517751 0.71676
RightFoot  -11.7069 -0.107793 -9.00323
RightToes  -1.33073e-015 0 -3.6325e-017
Spine  68.5367 -9.58834 12.1202
Spine1  -10.607 -1.31233 -9.75558
HEad  -46.101 -18.443 13.7268
LeftShoulder1  2.3463 -10.5026 -9.38037
LeftArm  -28.2024 -74.6153 -43.6943
LeftForeArm  -10.2536 -18.7941 -2.62746
LeftHand  -0.265825 1.85797 8.56772
RightShoulder  3.47752 -11.022 -58.7667
RightArm  -60.6646 52.9789 58.1908
RightForeArm  -16.8881 9.26849 -14.2808
RightHand  0.238859 5.88215 2.11954
LeftUpLeg  -81.1425 12.0263 -6.56738
LeftLeg  63.0707 -4.37263 -8.68964
LeftFoot  -9.58957 0.0475273 0.685041
LeftToes  -1.93726e-010 2.42366e-011 2.16268e-013
120
root  -63.1171 32.223 13.6277 -123.626 -78.399 154.327
RightUpLeg  -85.4595 -13.9373 8.90573
RightLeg  68.8555 0.673828 1.1564
RightFoot  -11.5665 -0.0948555 -8.62847
RightToes  -1.33073e-015 0 -3.6325e-017
Spine  68.7051 -9.62186 11.9773
Spine1  -10.9102 -1.50786 -9.51078
HEad  -46.4311 -18.5059 13.3495
LeftShoulder1  2.40665 -10.1975 -10.2816
LeftArm  -31.7216 -73.7248 -42.637
LeftForeArm  -7.32308 -20.4959 -3.6789
LeftHand  -0.267841 1.80552 8.51267
RightShoulder  5.25464 -13.7938 -63.1344
RightArm  -70.2397 53.1032 65.0917
RightForeArm  -8.8614 13.7781 -11.5697
RightHand  0.310018 6.25794 2.76156
LeftUpLeg  -81.4227 12.3121 -6.84689
LeftLeg  63.2917 -4.43175 -8.90317
LeftFoot  -9.61054 0.0464806 0.8049
LeftToes  -1.93726e-010 2.42366e-011 2.16268e-013
121
root  -63.2787 32.4897 13.7678 -123.37 -77.5866 154.544
RightUpLeg  -85.1062 -13.8387 8.13091
RightLeg  67.7118 0.859122 1.58896
RightFoot  -10.9156 -0.0430594 -8.32359
RightToes  -1.33073e-015 0 -3.6325e-017
Spine  68.2108 -9.60812 11.5569
Spine1  -9.90516 -1.59453 -9.63951
HEad  -47.0229 -18.1959 14.0816
LeftShoulder1  2.36085 -10.3105 -9.75316
LeftArm  -34.9905 -73.3655 -40.722
LeftForeArm  -7.03016 -21.211 -4.11641
LeftHand  -0.254884 2.01917 8.57023
RightShoulder  7.28053 -16.6047 -67.0524
RightArm  -76.5792 53.0417 71.2028
RightForeArm  0.298062 17.6831 -7.04586
RightHand  0.215082 6.69428 1.71243
LeftUpLeg  -80.9029 12.3614 -7.73452
LeftLeg  62.2328 -4.36779 -8.35727
LeftFoot  -9.45066 0.0470372 0.841643
LeftToes  -1.93726e-010 2.42366e-011 2.16268e-013
122
root  -63.4467 32.8758 13.9721 -125.245 -76.7884 156.569
RightUpLeg  -84.1252 -13.6996 7.57755
RightLeg  66.0621 1.15226 2.18619
RightFoot  -9.66102 0.0511262 -7.84019
RightToes  -1.33073e-015 0 -3.6325e-017
Spine  68.3637 -10.0788 11.5336
Spine1  -10.1864 -2.02591 -10.0824
HEad  -46.7727 -17.5707 14.1473
LeftShoulder1  2.42051 -10.135 -10.4868
LeftArm  -35.8182 -72.743 -39.1965
LeftForeArm  -8.04408 -21.2211 -4.18457
LeftHand  -0.2798 1.71455 8.72876
RightShoulder  9.40733 -19.3545 -70.1922
RightArm  -81.4877 53.6662 78.8757
RightForeArm  11.0243 20.6919 -1.46278
RightHand  0.249327 5.95297 2.2138
LeftUpLeg  -79.7217 12.7482 -8.38903
LeftLeg  60.638 -4.36725 -7.78919
LeftFoot  -9.31437 0.0388748 0.948339
LeftToes  -1.93726e-010 2.42366e-011 2.16268e-013
123
root  -63.5856 33.3191 14.2012 -126.412 -75.9109 157.848
RightUpLeg  -83.106 -13.7099 6.96026
RightLeg  64.1354 1.53637 2.86131
RightFoot  -7.93787 0.167691 -7.49192
RightToes  -1.33073e-015 0 -3.6325e-017
Spine  68.1324 -10.4504 11.4425
Spine1  -10.2818 -2.27208 -10.6083
HEad  -46.9495 -16.3834 14.5188
LeftShoulder1  2.39808 -9.90956 -10.6335
LeftArm  -36.5974 -71.5369 -39.6965
LeftForeArm  -6.86621 -21.9149 -4.55477
LeftHand  -0.273469 1.52701 8.01048
RightShoulder  11.3741 -21.5711 -73.0587
RightArm  -82.6595 53.1385 86.7762
RightForeArm  15.7646 23.0852 3.23568
RightHand  0.216097 6.20689 1.82323
LeftUpLeg  -78.3624 12.9018 -8.92318
LeftLeg  58.7294 -4.47292 -7.37207
LeftFoot  -8.72168 0.0351611 0.777573
LeftToes  -1.93726e-010 2.42366e-011 2.16268e-013
124
root  -63.7231 33.8136 14.4733 -127.873 -75.0658 159.612
RightUpLeg  -81.787 -13.5606 6.25926
RightLeg  61.5483 1.99045 3.44585
RightFoot  -6.97585 0.16598 -5.49699
RightToes  -1.33073e-015 0 -3.6325e-017
Spine  66.9166 -10.5336 11.8912
Spine1  -9.36999 -2.13212 -11.0832
HEad  -47.0183 -16.6574 14.9879
LeftShoulder1  2.42917 -10.2069 -10.4536
LeftArm  -37.1755 -70.221 -39.9181
LeftForeArm  -3.84416 -23.6695 -5.24565
LeftHand  -0.146371 3.19129 7.13611
RightShoulder  13.3446 -23.5245 -75.9581
RightArm  -75.3869 51.0704 93.637
RightForeArm  11.6468 26.4598 5.18033
RightHand  0.210919 6.54138 1.69982
LeftUpLeg  -77.0205 12.963 -9.30169
LeftLeg  56.4373 -4.56614 -6.86746
LeftFoot  -7.97342 0.0373166 0.350859
LeftToes  -1.93726e-010 2.42366e-011 2.16268e-013
125
root  -63.8633 34.342 14.7909 -129.889 -74.1218 161.442
RightUpLeg  -79.7071 -13.6972 5.59703
RightLeg  58.5616 2.58307 4.09337
RightFoot  -6.91743 0.0652493 -2.88404
RightToes  -1.33073e-015 0 -3.6325e-017
Spine  65.8945 -10.102 12.1557
Spine1  -8.57236 -1.83062 -10.077
HEad  -47.098 -16.6227 14.4897
LeftShoulder1  2.51167 -10.1553 -11.1961
LeftArm  -35.2629 -69.0654 -41.2903
LeftForeArm  -3.24842 -25.566 -5.64901
LeftHand  -0.175391 2.88137 7.65057
RightShoulder  14.1348 -24.1645 -77.3165
RightArm  -69.1975 49.0899 96.7601
RightForeArm  7.32568 29.5522 6.02496
RightHand  0.260845 6.83677 2.12832
LeftUpLeg  -75.0391 13.0666 -9.62125
LeftLeg  54.0494 -4.5732 -6.26598
LeftFoot  -7.28233 0.0208741 0.633936
LeftToes  -1.93726e-010 2.42366e-011 2.16268e-013
126
root  -63.9644 34.9319 15.1358 -132.885 -73.342 163.556
RightUpLeg  -76.7346 -13.53 4.79312
RightLeg  55.2189 3.11705 4.39614
RightFoot  -5.38564 0.115539 -2.96102
RightToes  -1.33073e-015 0 -3.6325e-017
Spine  65.0314 -10.1257 12.6059
Spine1  -7.54299 -1.60442 -9.80667
HEad  -46.9169 -16.1791 14.6632
LeftShoulder1  2.63022 -10.553 -11.5554
LeftArm  -34.8908 -67.4968 -41.3562
LeftForeArm  -2.09344 -27.3494 -6.00328
LeftHand  -0.189947 2.45758 7.18601
RightShoulder  12.1535 -21.9583 -75.3693
RightArm  -68.146 46.5386 94.658
RightForeArm  3.66517 32.0169 6.85393
RightHand  0.155744 7.31426 1.05306
LeftUpLeg  -72.2566 13.086 -9.41043
LeftLeg  51.3867 -4.32965 -5.35047
LeftFoot  -6.32083 0.00201524 0.839722
LeftToes  -1.93726e-010 2.42366e-011 2.16268e-013
